<svg width="35" height="35" viewBox="0 0 35 35" fill="none" xmlns="http://www.w3.org/2000/svg">
<path d="M17.5 33C8.93958 33 2 26.0604 2 17.5C2 8.93958 8.93958 2 17.5 2C26.0604 2 33 8.93958 33 17.5C33 26.0604 26.0604 33 17.5 33Z" fill="white"/>
<path d="M17.902 25.9741C18.6092 26.8226 19.8703 26.9373 20.7188 26.2302C21.5674 25.523 21.682 24.2619 20.9749 23.4134L17.902 25.9741ZM13.73 17.8436L12.1936 16.5632C11.5755 17.3049 11.5755 18.3823 12.1936 19.1239L13.73 17.8436ZM20.9749 12.2738C21.682 11.4252 21.5674 10.1641 20.7188 9.45699C19.8703 8.74986 18.6092 8.86451 17.902 9.71307L20.9749 12.2738ZM20.9749 23.4134L15.2665 16.5632L12.1936 19.1239L17.902 25.9741L20.9749 23.4134ZM15.2665 19.1239L20.9749 12.2738L17.902 9.71307L12.1936 16.5632L15.2665 19.1239ZM17.5 31C10.0442 31 4 24.9558 4 17.5L-1.78814e-06 17.5C-1.36567e-06 27.165 7.83502 35 17.5 35L17.5 31ZM4 17.5C4 10.0442 10.0442 4 17.5 4L17.5 -1.78814e-06C7.83501 -1.36567e-06 -2.21061e-06 7.83502 -1.78814e-06 17.5L4 17.5ZM17.5 4C24.9558 4 31 10.0442 31 17.5L35 17.5C35 7.83501 27.165 -2.21061e-06 17.5 -1.78814e-06L17.5 4ZM31 17.5C31 24.9558 24.9558 31 17.5 31L17.5 35C27.165 35 35 27.165 35 17.5L31 17.5Z" fill="#B85272"/>
</svg>
