<svg width="237" height="80" viewBox="0 0 237 80" fill="none" xmlns="http://www.w3.org/2000/svg">
<path d="M15.2188 21.7812C15.2188 21.1146 14.9688 20.625 14.4688 20.3125C13.9896 19.9792 13.4583 19.8125 12.875 19.8125C11.7083 19.8125 10.5729 19.9896 9.46875 20.3438C8.36458 20.6771 7.375 21.1458 6.5 21.75C5.625 22.3333 4.91667 23.0417 4.375 23.875C3.85417 24.6875 3.59375 25.5729 3.59375 26.5312C3.59375 27.1979 3.67708 27.7292 3.84375 28.125C4.03125 28.5208 4.23958 28.8229 4.46875 29.0312C4.69792 29.2188 4.92708 29.3438 5.15625 29.4062C5.40625 29.4479 5.58333 29.4688 5.6875 29.4688C6.20833 29.4688 6.63542 29.3854 6.96875 29.2188C7.30208 29.0312 7.60417 28.8438 7.875 28.6562C8.14583 28.4479 8.39583 28.2604 8.625 28.0938C8.875 27.9062 9.15625 27.8125 9.46875 27.8125C9.71875 27.8125 9.97917 27.875 10.25 28C10.5417 28.1042 10.8021 28.2812 11.0312 28.5312C11.2812 28.7812 11.4896 29.1146 11.6562 29.5312C11.8229 29.9271 11.9062 30.4167 11.9062 31C11.9062 31.8333 11.7396 32.5521 11.4062 33.1562C11.0938 33.7604 10.6771 34.2708 10.1562 34.6875C9.65625 35.0833 9.07292 35.3854 8.40625 35.5938C7.76042 35.7812 7.11458 35.875 6.46875 35.875C5.46875 35.875 4.5625 35.7083 3.75 35.375C2.95833 35.0208 2.28125 34.5417 1.71875 33.9375C1.15625 33.3333 0.729167 32.625 0.4375 31.8125C0.145833 31 0 30.1354 0 29.2188C0 26.6146 0.65625 24.4792 1.96875 22.8125C3.28125 21.125 5.0625 19.8021 7.3125 18.8438C9.58333 17.8646 12.2188 17.1979 15.2188 16.8438C18.2396 16.4688 21.4479 16.2812 24.8438 16.2812C28.7188 16.2812 32.2188 16.6771 35.3438 17.4688C38.4896 18.2396 41.1771 19.5 43.4062 21.25C45.6354 23 47.3542 25.2917 48.5625 28.125C49.7708 30.9375 50.375 34.375 50.375 38.4375C50.375 42.5 49.7292 46.1042 48.4375 49.25C47.1667 52.3958 45.4167 55.0417 43.1875 57.1875C40.9792 59.3125 38.375 60.9375 35.375 62.0625C32.3958 63.1667 29.1979 63.7188 25.7812 63.7188C23.5104 63.7188 21.6771 63.6042 20.2812 63.375C18.9062 63.1667 17.8438 62.8021 17.0938 62.2812C16.3438 61.7396 15.8438 61.0312 15.5938 60.1562C15.3438 59.2604 15.2188 58.1354 15.2188 56.7812V21.7812ZM25.5312 57.0625C25.5312 58.25 25.7917 59.1042 26.3125 59.625C26.8542 60.125 27.6458 60.375 28.6875 60.375C30.25 60.375 31.6875 60.0312 33 59.3438C34.3333 58.6562 35.4792 57.4792 36.4375 55.8125C37.3958 54.125 38.1458 51.8854 38.6875 49.0938C39.2292 46.3021 39.5 42.7917 39.5 38.5625C39.5 35.7292 39.3229 33.2812 38.9688 31.2188C38.6354 29.1354 38.1875 27.375 37.625 25.9375C37.0625 24.4792 36.4167 23.3021 35.6875 22.4062C34.9792 21.4896 34.25 20.7812 33.5 20.2812C32.75 19.7604 32.0104 19.4167 31.2812 19.25C30.5729 19.0625 29.9375 18.9688 29.375 18.9688C28.0208 18.9688 27.0417 19.2708 26.4375 19.875C25.8333 20.4792 25.5312 21.5625 25.5312 23.125V57.0625ZM54.8438 47C54.8438 44.2708 55.2396 41.8854 56.0312 39.8438C56.8229 37.7812 57.875 36.0625 59.1875 34.6875C60.5208 33.3125 62.0625 32.2812 63.8125 31.5938C65.5625 30.9062 67.3958 30.5625 69.3125 30.5625C71.2292 30.5625 73.0625 30.8854 74.8125 31.5312C76.5625 32.1562 78.0938 33.125 79.4062 34.4375C80.7396 35.75 81.8021 37.4167 82.5938 39.4375C83.3854 41.4375 83.7812 43.8125 83.7812 46.5625C83.7812 49.2917 83.3854 51.7083 82.5938 53.8125C81.8021 55.9167 80.7396 57.6875 79.4062 59.125C78.0938 60.5625 76.5625 61.6562 74.8125 62.4062C73.0625 63.1354 71.2292 63.5 69.3125 63.5C67.3958 63.5 65.5625 63.1562 63.8125 62.4688C62.0625 61.7604 60.5208 60.7188 59.1875 59.3438C57.875 57.9688 56.8229 56.25 56.0312 54.1875C55.2396 52.125 54.8438 49.7292 54.8438 47ZM74.0625 46.6875C74.0625 45.0208 74 43.4167 73.875 41.875C73.7708 40.3125 73.5521 38.9271 73.2188 37.7188C72.8854 36.5104 72.4062 35.5521 71.7812 34.8438C71.1562 34.1146 70.3333 33.75 69.3125 33.75C68.2917 33.75 67.4688 34.1354 66.8438 34.9062C66.2188 35.6562 65.7396 36.6562 65.4062 37.9062C65.0729 39.1354 64.8542 40.5417 64.75 42.125C64.6458 43.7083 64.5938 45.3333 64.5938 47C64.5938 48.6667 64.6458 50.3021 64.75 51.9062C64.8542 53.4896 65.0729 54.9062 65.4062 56.1562C65.7396 57.4062 66.2188 58.4167 66.8438 59.1875C67.4688 59.9375 68.2917 60.3125 69.3125 60.3125C70.3333 60.3125 71.1562 59.9167 71.7812 59.125C72.4062 58.3333 72.8854 57.2917 73.2188 56C73.5521 54.7083 73.7708 53.25 73.875 51.625C74 50 74.0625 48.3542 74.0625 46.6875ZM109.5 41.375C108.854 41.375 108.312 41.2812 107.875 41.0938C107.438 40.8854 107.083 40.6146 106.812 40.2812C106.542 39.9479 106.344 39.5833 106.219 39.1875C106.094 38.7708 106.031 38.3438 106.031 37.9062C106.031 37.3438 106.062 36.8021 106.125 36.2812C106.208 35.7604 106.219 35.2917 106.156 34.875C106.115 34.4583 105.958 34.125 105.688 33.875C105.417 33.625 104.938 33.5 104.25 33.5C103.521 33.5 102.75 33.7083 101.938 34.125C101.125 34.5417 100.385 35.1979 99.7188 36.0938C99.0521 36.9896 98.5 38.1458 98.0625 39.5625C97.625 40.9583 97.4062 42.6458 97.4062 44.625C97.4062 46.8125 97.6042 48.8125 98 50.625C98.4167 52.4167 99.0312 53.9479 99.8438 55.2188C100.656 56.4896 101.667 57.4792 102.875 58.1875C104.083 58.875 105.5 59.2188 107.125 59.2188C107.854 59.2188 108.542 59.1354 109.188 58.9688C109.854 58.8021 110.479 58.5729 111.062 58.2812C111.646 57.9896 112.198 57.6562 112.719 57.2812C113.26 56.8854 113.781 56.4688 114.281 56.0312L115.062 56.7812C114.583 57.4271 113.969 58.1354 113.219 58.9062C112.469 59.6771 111.562 60.4062 110.5 61.0938C109.438 61.7604 108.198 62.3229 106.781 62.7812C105.365 63.2188 103.75 63.4375 101.938 63.4375C100.125 63.4375 98.3542 63.0938 96.625 62.4062C94.9167 61.6979 93.3958 60.6771 92.0625 59.3438C90.7292 58.0104 89.6562 56.3958 88.8438 54.5C88.0521 52.5833 87.6562 50.4062 87.6562 47.9688C87.6562 46.0729 87.8958 44.3333 88.375 42.75C88.8542 41.1458 89.5 39.6979 90.3125 38.4062C91.1458 37.1146 92.1042 35.9792 93.1875 35C94.2917 34.0208 95.4479 33.2083 96.6562 32.5625C97.8646 31.8958 99.0938 31.3958 100.344 31.0625C101.615 30.7292 102.833 30.5625 104 30.5625C105.542 30.5625 106.885 30.7396 108.031 31.0938C109.177 31.4479 110.125 31.9167 110.875 32.5C111.646 33.0833 112.219 33.7604 112.594 34.5312C112.969 35.2812 113.156 36.0625 113.156 36.875C113.156 37.4792 113.073 38.0625 112.906 38.625C112.76 39.1667 112.531 39.6458 112.219 40.0625C111.927 40.4583 111.552 40.7812 111.094 41.0312C110.635 41.2604 110.104 41.375 109.5 41.375ZM127.344 48.6562C127.344 49.3229 127.438 50.0521 127.625 50.8438C127.833 51.6146 128.125 52.3958 128.5 53.1875C128.875 53.9792 129.333 54.7396 129.875 55.4688C130.438 56.1771 131.073 56.8125 131.781 57.375C132.51 57.9375 133.312 58.3854 134.188 58.7188C135.062 59.0521 136.021 59.2188 137.062 59.2188C137.792 59.2188 138.469 59.1354 139.094 58.9688C139.719 58.8021 140.302 58.5729 140.844 58.2812C141.385 57.9896 141.906 57.6562 142.406 57.2812C142.906 56.8854 143.406 56.4688 143.906 56.0312L144.688 56.7812C144.208 57.4271 143.594 58.1354 142.844 58.9062C142.094 59.6771 141.188 60.4062 140.125 61.0938C139.062 61.7604 137.823 62.3229 136.406 62.7812C134.99 63.2188 133.375 63.4375 131.562 63.4375C129.75 63.4375 127.979 63.1146 126.25 62.4688C124.542 61.8021 123.021 60.8125 121.688 59.5C120.354 58.1875 119.281 56.5521 118.469 54.5938C117.677 52.6354 117.281 50.3438 117.281 47.7188C117.281 45.8229 117.521 44.0833 118 42.5C118.479 40.9167 119.125 39.4896 119.938 38.2188C120.771 36.9479 121.729 35.8333 122.812 34.875C123.917 33.9167 125.073 33.125 126.281 32.5C127.49 31.8542 128.719 31.375 129.969 31.0625C131.24 30.7292 132.458 30.5625 133.625 30.5625C135.167 30.5625 136.51 30.7292 137.656 31.0625C138.802 31.3958 139.75 31.8438 140.5 32.4062C141.271 32.9688 141.844 33.625 142.219 34.375C142.594 35.1042 142.781 35.875 142.781 36.6875C142.781 37.6667 142.5 38.5521 141.938 39.3438C141.375 40.1146 140.625 40.7917 139.688 41.375L127.344 48.6562ZM133.625 42.3125C133.896 42.1458 134.115 41.9896 134.281 41.8438C134.469 41.6771 134.615 41.4896 134.719 41.2812C134.823 41.0521 134.896 40.7812 134.938 40.4688C135 40.1354 135.031 39.7292 135.031 39.25C135.031 38.7292 134.969 38.1562 134.844 37.5312C134.74 36.8854 134.552 36.2812 134.281 35.7188C134.01 35.1562 133.667 34.6875 133.25 34.3125C132.833 33.9375 132.333 33.75 131.75 33.75C131 33.75 130.354 33.9792 129.812 34.4375C129.292 34.875 128.854 35.4479 128.5 36.1562C128.167 36.8646 127.896 37.6771 127.688 38.5938C127.5 39.4896 127.354 40.3958 127.25 41.3125C127.146 42.2292 127.083 43.1146 127.062 43.9688C127.042 44.8021 127.031 45.5104 127.031 46.0938L133.625 42.3125ZM185.562 55.9062C185.562 56.8021 185.667 57.5312 185.875 58.0938C186.104 58.6354 186.427 59.0625 186.844 59.375C187.26 59.6875 187.781 59.9062 188.406 60.0312C189.052 60.1354 189.802 60.1875 190.656 60.1875C192.031 60.1875 193.271 60.0521 194.375 59.7812C195.479 59.4896 196.448 59.1771 197.281 58.8438C198.115 58.4896 198.812 58.1667 199.375 57.875C199.958 57.5833 200.406 57.4375 200.719 57.4375C201.115 57.4375 201.427 57.5625 201.656 57.8125C201.885 58.0625 202 58.4271 202 58.9062C202 59.7396 201.917 60.3438 201.75 60.7188C201.583 61.0729 201.24 61.3438 200.719 61.5312C198.823 62.1979 196.688 62.6875 194.312 63C191.938 63.3333 189.25 63.5 186.25 63.5C184.021 63.5 182.198 63.3958 180.781 63.1875C179.365 63 178.25 62.6562 177.438 62.1562C176.625 61.6562 176.062 60.9792 175.75 60.125C175.458 59.25 175.312 58.1354 175.312 56.7812V21.2812C175.312 20.8229 175.26 20.4583 175.156 20.1875C175.052 19.9167 174.906 19.7083 174.719 19.5625C174.531 19.3958 174.302 19.2917 174.031 19.25C173.781 19.1875 173.5 19.1562 173.188 19.1562C172.729 19.1562 172.156 19.2292 171.469 19.375C170.802 19.5208 170.094 19.7396 169.344 20.0312C168.594 20.3229 167.833 20.6875 167.062 21.125C166.312 21.5417 165.635 22.0208 165.031 22.5625C164.448 23.1042 163.969 23.7083 163.594 24.375C163.219 25.0417 163.031 25.7604 163.031 26.5312C163.031 27.1979 163.115 27.7292 163.281 28.125C163.469 28.5208 163.677 28.8229 163.906 29.0312C164.135 29.2188 164.365 29.3438 164.594 29.4062C164.844 29.4479 165.021 29.4688 165.125 29.4688C165.646 29.4688 166.073 29.3854 166.406 29.2188C166.74 29.0312 167.042 28.8438 167.312 28.6562C167.583 28.4479 167.833 28.2604 168.062 28.0938C168.312 27.9062 168.594 27.8125 168.906 27.8125C169.156 27.8125 169.417 27.875 169.688 28C169.979 28.1042 170.24 28.2812 170.469 28.5312C170.719 28.7812 170.927 29.1146 171.094 29.5312C171.26 29.9271 171.344 30.4167 171.344 31C171.344 31.8333 171.177 32.5521 170.844 33.1562C170.531 33.7604 170.115 34.2708 169.594 34.6875C169.094 35.0833 168.51 35.3854 167.844 35.5938C167.198 35.7812 166.552 35.875 165.906 35.875C164.906 35.875 164 35.7083 163.188 35.375C162.396 35.0208 161.719 34.5417 161.156 33.9375C160.594 33.3333 160.167 32.625 159.875 31.8125C159.583 31 159.438 30.1354 159.438 29.2188C159.438 27.7812 159.698 26.4688 160.219 25.2812C160.74 24.0729 161.448 22.9896 162.344 22.0312C163.26 21.0729 164.323 20.2396 165.531 19.5312C166.76 18.8021 168.083 18.1979 169.5 17.7188C170.917 17.2396 172.396 16.8854 173.938 16.6562C175.479 16.4062 177.021 16.2812 178.562 16.2812C180.271 16.2812 181.594 16.4479 182.531 16.7812C183.49 17.0938 184.188 17.4792 184.625 17.9375C185.083 18.3958 185.354 18.875 185.438 19.375C185.521 19.875 185.562 20.2917 185.562 20.625V55.9062ZM232.594 57.5625C232.594 57.75 232.604 57.9583 232.625 58.1875C232.646 58.3958 232.698 58.6042 232.781 58.8125C232.865 59 232.99 59.1562 233.156 59.2812C233.323 59.4062 233.562 59.4688 233.875 59.4688C234.271 59.4688 234.625 59.3333 234.938 59.0625C235.25 58.7708 235.542 58.4792 235.812 58.1875L236.562 58.8438C236.25 59.2812 235.854 59.7708 235.375 60.3125C234.917 60.8333 234.354 61.3333 233.688 61.8125C233.021 62.2917 232.26 62.6875 231.406 63C230.552 63.3333 229.583 63.5 228.5 63.5C227.583 63.5 226.781 63.375 226.094 63.125C225.427 62.8958 224.854 62.5833 224.375 62.1875C223.917 61.7708 223.573 61.2917 223.344 60.75C223.115 60.1875 223 59.5938 223 58.9688V57.5625C221.958 58.6875 220.865 59.6771 219.719 60.5312C219.219 60.9062 218.688 61.2708 218.125 61.625C217.562 61.9792 216.979 62.3021 216.375 62.5938C215.771 62.8646 215.146 63.0833 214.5 63.25C213.854 63.4167 213.208 63.5 212.562 63.5C211.312 63.5 210.24 63.2812 209.344 62.8438C208.469 62.3854 207.76 61.7917 207.219 61.0625C206.677 60.3333 206.281 59.5104 206.031 58.5938C205.781 57.6771 205.656 56.7604 205.656 55.8438V36.5C205.656 36.3125 205.646 36.1146 205.625 35.9062C205.604 35.6771 205.552 35.4688 205.469 35.2812C205.385 35.0729 205.26 34.9062 205.094 34.7812C204.927 34.6562 204.688 34.5938 204.375 34.5938C204 34.5938 203.646 34.7396 203.312 35.0312C203 35.3021 202.719 35.5833 202.469 35.875L201.688 35.2188C202 34.7812 202.385 34.3021 202.844 33.7812C203.323 33.2396 203.896 32.7292 204.562 32.25C205.229 31.7708 205.99 31.375 206.844 31.0625C207.719 30.7292 208.688 30.5625 209.75 30.5625C210.667 30.5625 211.469 30.6875 212.156 30.9375C212.844 31.1667 213.417 31.4896 213.875 31.9062C214.333 32.3021 214.677 32.7812 214.906 33.3438C215.135 33.8854 215.25 34.4688 215.25 35.0938V55.9688C215.25 56.2604 215.292 56.5625 215.375 56.875C215.479 57.1667 215.615 57.4375 215.781 57.6875C215.969 57.9375 216.198 58.1458 216.469 58.3125C216.74 58.4583 217.062 58.5312 217.438 58.5312C218.042 58.5312 218.646 58.375 219.25 58.0625C219.854 57.75 220.406 57.3854 220.906 56.9688C221.406 56.5312 221.833 56.1042 222.188 55.6875C222.562 55.2708 222.833 54.9583 223 54.75V36.5C223 36.3125 222.99 36.1146 222.969 35.9062C222.948 35.6771 222.896 35.4688 222.812 35.2812C222.729 35.0729 222.604 34.9062 222.438 34.7812C222.271 34.6562 222.031 34.5938 221.719 34.5938C221.344 34.5938 220.99 34.7396 220.656 35.0312C220.344 35.3021 220.062 35.5833 219.812 35.875L219.031 35.2188C219.344 34.7812 219.729 34.3021 220.188 33.7812C220.667 33.2396 221.24 32.7292 221.906 32.25C222.573 31.7708 223.333 31.375 224.188 31.0625C225.062 30.7292 226.031 30.5625 227.094 30.5625C228.01 30.5625 228.812 30.6875 229.5 30.9375C230.188 31.1667 230.76 31.4896 231.219 31.9062C231.677 32.3021 232.021 32.7812 232.25 33.3438C232.479 33.8854 232.594 34.4688 232.594 35.0938V57.5625ZM213.719 26.5312L222.219 18.3125C222.573 18 222.948 17.75 223.344 17.5625C223.74 17.3542 224.135 17.25 224.531 17.25C224.906 17.25 225.26 17.3438 225.594 17.5312C225.927 17.6979 226.219 17.9271 226.469 18.2188C226.719 18.5104 226.917 18.8438 227.062 19.2188C227.208 19.5729 227.281 19.9375 227.281 20.3125C227.281 20.8542 227.094 21.3333 226.719 21.75C226.365 22.1458 225.938 22.4583 225.438 22.6875L214.344 27.4062L213.719 26.5312Z" fill="#B85272"/>
<path d="M77.444 6.7H80.218V20H77.444V6.7ZM81.966 20H79.192V17.53H81.871C82.4537 17.53 83.0047 17.454 83.524 17.302C84.0433 17.1373 84.4993 16.884 84.892 16.542C85.2847 16.2 85.5887 15.7693 85.804 15.25C86.032 14.718 86.146 14.0847 86.146 13.35C86.146 12.6153 86.032 11.9883 85.804 11.469C85.5887 10.937 85.2847 10.5 84.892 10.158C84.4993 9.816 84.0433 9.569 83.524 9.417C83.0047 9.25233 82.4537 9.17 81.871 9.17H79.192V6.7H81.966C83.3593 6.7 84.5753 6.97233 85.614 7.517C86.6653 8.06167 87.4823 8.83433 88.065 9.835C88.6477 10.823 88.939 11.9947 88.939 13.35C88.939 14.7053 88.6477 15.8833 88.065 16.884C87.4823 17.872 86.6653 18.6383 85.614 19.183C84.5753 19.7277 83.3593 20 81.966 20ZM93.1536 13.35C93.1536 14.1987 93.3309 14.9523 93.6856 15.611C94.0403 16.2697 94.5279 16.789 95.1486 17.169C95.7693 17.549 96.4913 17.739 97.3146 17.739C98.1379 17.739 98.8599 17.549 99.4806 17.169C100.101 16.789 100.583 16.2697 100.925 15.611C101.279 14.9523 101.457 14.1987 101.457 13.35C101.457 12.5013 101.286 11.7477 100.944 11.089C100.602 10.4303 100.12 9.911 99.4996 9.531C98.8789 9.151 98.1506 8.961 97.3146 8.961C96.4913 8.961 95.7693 9.151 95.1486 9.531C94.5279 9.911 94.0403 10.4303 93.6856 11.089C93.3309 11.7477 93.1536 12.5013 93.1536 13.35ZM90.2846 13.35C90.2846 12.3367 90.4619 11.412 90.8166 10.576C91.1713 9.72733 91.6653 8.99267 92.2986 8.372C92.9319 7.75133 93.6729 7.27633 94.5216 6.947C95.3829 6.605 96.3139 6.434 97.3146 6.434C98.3279 6.434 99.2589 6.605 100.108 6.947C100.956 7.27633 101.697 7.75133 102.331 8.372C102.977 8.99267 103.471 9.72733 103.813 10.576C104.167 11.412 104.345 12.3367 104.345 13.35C104.345 14.3507 104.167 15.2817 103.813 16.143C103.471 16.9917 102.983 17.7327 102.35 18.366C101.729 18.9993 100.988 19.4933 100.127 19.848C99.2779 20.19 98.3406 20.361 97.3146 20.361C96.2886 20.361 95.3449 20.19 94.4836 19.848C93.6349 19.4933 92.8939 18.9993 92.2606 18.366C91.6273 17.7327 91.1396 16.9917 90.7976 16.143C90.4556 15.2817 90.2846 14.3507 90.2846 13.35ZM108.63 13.35C108.63 14.224 108.826 14.9903 109.219 15.649C109.624 16.295 110.15 16.7953 110.796 17.15C111.442 17.492 112.145 17.663 112.905 17.663C113.538 17.663 114.102 17.5807 114.596 17.416C115.09 17.2513 115.533 17.0297 115.926 16.751C116.331 16.4723 116.68 16.1683 116.971 15.839V18.898C116.426 19.3287 115.831 19.6643 115.185 19.905C114.552 20.1457 113.747 20.266 112.772 20.266C111.759 20.266 110.815 20.1013 109.941 19.772C109.08 19.4427 108.326 18.9677 107.68 18.347C107.047 17.7263 106.553 16.998 106.198 16.162C105.856 15.3133 105.685 14.376 105.685 13.35C105.685 12.324 105.856 11.393 106.198 10.557C106.553 9.70833 107.047 8.97367 107.68 8.353C108.326 7.73233 109.08 7.25733 109.941 6.928C110.815 6.59867 111.759 6.434 112.772 6.434C113.747 6.434 114.552 6.55433 115.185 6.795C115.831 7.03567 116.426 7.37133 116.971 7.802V10.861C116.68 10.5317 116.331 10.2277 115.926 9.949C115.533 9.67033 115.09 9.44867 114.596 9.284C114.102 9.11933 113.538 9.037 112.905 9.037C112.145 9.037 111.442 9.21433 110.796 9.569C110.15 9.911 109.624 10.405 109.219 11.051C108.826 11.697 108.63 12.4633 108.63 13.35ZM121.422 20V17.701H128.129V20H121.422ZM121.422 8.999V6.7H128.129V8.999H121.422ZM121.422 14.072V11.811H127.749V14.072H121.422ZM119.674 6.7H122.296V20H119.674V6.7ZM133.828 13.806H136.697L141.029 20H137.818L133.828 13.806ZM130.807 6.7H133.524V20H130.807V6.7ZM132.46 9.018V6.7H135.272C136.324 6.7 137.217 6.87733 137.951 7.232C138.686 7.58667 139.25 8.08067 139.642 8.714C140.035 9.34733 140.231 10.0883 140.231 10.937C140.231 11.773 140.035 12.514 139.642 13.16C139.25 13.7933 138.686 14.2873 137.951 14.642C137.217 14.9967 136.324 15.174 135.272 15.174H132.46V13.008H135.101C135.583 13.008 135.994 12.932 136.336 12.78C136.691 12.6153 136.963 12.3873 137.153 12.096C137.343 11.792 137.438 11.431 137.438 11.013C137.438 10.595 137.343 10.2403 137.153 9.949C136.963 9.645 136.691 9.417 136.336 9.265C135.994 9.10033 135.583 9.018 135.101 9.018H132.46ZM142.59 6.7H145.345V20H142.59V6.7ZM150.055 16.979L150.378 14.832H156.762L157.085 16.979H150.055ZM153.532 11.013L151.537 15.592L151.594 16.2L149.846 20H146.787L153.532 5.921L160.277 20H157.199L155.489 16.314L155.527 15.63L153.532 11.013Z" fill="#B85272"/>
</svg>
