<svg width="35" height="35" viewBox="0 0 35 35" fill="none" xmlns="http://www.w3.org/2000/svg">
<g id="Icon">
<g id="Icon_2">
<path d="M17.5 2C26.0604 2 33 8.93958 33 17.5C33 26.0604 26.0604 33 17.5 33C8.93959 33 2 26.0604 2 17.5C2 8.93959 8.93958 2 17.5 2Z" fill="white"/>
<path d="M17.098 9.02591C16.3909 8.17735 15.1297 8.0627 14.2812 8.76983C13.4326 9.47696 13.318 10.7381 14.0251 11.5866L17.098 9.02591ZM21.27 17.1564L22.8064 18.4368C23.4245 17.6951 23.4245 16.6177 22.8064 15.8761L21.27 17.1564ZM14.0251 22.7262C13.318 23.5748 13.4326 24.8359 14.2812 25.543C15.1297 26.2501 16.3908 26.1355 17.098 25.2869L14.0251 22.7262ZM14.0251 11.5866L19.7335 18.4368L22.8064 15.8761L17.098 9.02591L14.0251 11.5866ZM19.7335 15.8761L14.0251 22.7262L17.098 25.2869L22.8064 18.4368L19.7335 15.8761ZM17.5 4C24.9558 4 31 10.0442 31 17.5H35C35 7.83501 27.165 -4.76837e-07 17.5 0V4ZM31 17.5C31 24.9558 24.9558 31 17.5 31V35C27.165 35 35 27.165 35 17.5H31ZM17.5 31C10.0442 31 4 24.9558 4 17.5H0C4.76837e-07 27.165 7.83502 35 17.5 35V31ZM4 17.5C4 10.0442 10.0442 4 17.5 4V0C7.83502 4.76837e-07 -4.76837e-07 7.83502 0 17.5H4Z" fill="#B85272"/>
</g>
</g>
</svg>
