<svg width="25" height="26" viewBox="0 0 25 26" fill="none" xmlns="http://www.w3.org/2000/svg">
<path d="M0 25.9839L1.75729 19.5641C0.672915 17.6849 0.103125 15.5547 0.104166 13.3703C0.107291 6.54118 5.66457 0.983887 12.4927 0.983887C15.8062 0.984928 18.9166 2.27555 21.2562 4.61722C23.5947 6.95889 24.8822 10.0714 24.8812 13.3818C24.8781 20.212 19.3208 25.7693 12.4927 25.7693C10.4198 25.7683 8.37706 25.2485 6.56769 24.261L0 25.9839ZM6.87186 22.0183C8.61769 23.0547 10.2844 23.6756 12.4885 23.6766C18.1635 23.6766 22.7864 19.0578 22.7895 13.3797C22.7916 7.69014 18.1906 3.07764 12.4968 3.07555C6.81769 3.07555 2.19791 7.6943 2.19583 13.3714C2.19479 15.6891 2.87395 17.4245 4.01457 19.2401L2.97395 23.0401L6.87186 22.0183ZM18.7333 16.3266C18.6562 16.1974 18.45 16.1203 18.1395 15.9651C17.8302 15.8099 16.3083 15.061 16.0239 14.9578C15.7406 14.8547 15.5343 14.8026 15.327 15.1131C15.1208 15.4224 14.5271 16.1203 14.3468 16.3266C14.1666 16.5328 13.9854 16.5589 13.676 16.4037C13.3666 16.2485 12.3687 15.9224 11.1864 14.8672C10.2666 14.0464 9.64477 13.0328 9.46456 12.7224C9.28435 12.4131 9.44581 12.2453 9.59998 12.0912C9.73956 11.9526 9.90935 11.7297 10.0646 11.5485C10.2219 11.3693 10.2729 11.2401 10.3771 11.0328C10.4802 10.8266 10.4291 10.6453 10.351 10.4901C10.2729 10.336 9.65415 8.81201 9.39685 8.19222C9.14477 7.58909 8.88956 7.67034 8.69998 7.66097L8.10623 7.65055C7.89998 7.65055 7.56457 7.72764 7.28123 8.03805C6.9979 8.34847 6.1979 9.09639 6.1979 10.6203C6.1979 12.1443 7.30728 13.6162 7.46144 13.8224C7.61665 14.0287 9.64373 17.1558 12.7489 18.4964C13.4875 18.8151 14.0646 19.0058 14.5135 19.1485C15.2552 19.3839 15.9302 19.3506 16.4635 19.2714C17.0583 19.1828 18.2948 18.5224 18.5531 17.7995C18.8114 17.0756 18.8114 16.4558 18.7333 16.3266Z" fill="#FEF1F5"/>
</svg>
